<svg xmlns="http://www.w3.org/2000/svg" width="5.129" height="8.5" viewBox="0 0 5.129 8.5">
  <path id="Union_3" data-name="Union 3" d="M-2748.741,4.244a.873.873,0,0,1-.258-.623.87.87,0,0,1,.258-.621l2.75-2.75-2.751-2.751a.868.868,0,0,1-.258-.621.869.869,0,0,1,.258-.621.875.875,0,0,1,.621-.257.876.876,0,0,1,.622.257l3.372,3.371a.869.869,0,0,1,.256.621.871.871,0,0,1-.256.622l-3.373,3.371a.871.871,0,0,1-.621.257A.872.872,0,0,1-2748.741,4.244Z" transform="translate(2749 4)" fill="#262626"/>
</svg>
