<svg xmlns="http://www.w3.org/2000/svg" width="19.976" height="15.325" viewBox="0 0 19.976 15.325">
  <path id="Subtraction_1" data-name="Subtraction 1" d="M-4090.7,12.325a1.272,1.272,0,0,1-.925-.4L-4097.6,5.64l-.013-.011a1.322,1.322,0,0,1-.387-.978,1.316,1.316,0,0,1,.384-.975l5.99-6.271a1.286,1.286,0,0,1,.93-.4,1.283,1.283,0,0,1,.928.4,1.469,1.469,0,0,1,0,2l-3.68,3.849h14.1a1.368,1.368,0,0,1,1.323,1.406,1.369,1.369,0,0,1-1.323,1.407h-14.1l3.673,3.847a1.471,1.471,0,0,1,0,2A1.271,1.271,0,0,1-4090.7,12.325Z" transform="translate(4098 3)" fill="#262626"/>
</svg>
