<svg xmlns="http://www.w3.org/2000/svg" width="16.658" height="16.658" viewBox="0 0 16.658 16.658">
  <g id="g1347" transform="translate(-2 -292.65)">
    <path id="circle1332" d="M10.329,292.65a8.329,8.329,0,1,0,8.329,8.329A8.341,8.341,0,0,0,10.329,292.65Zm0,1.666a6.663,6.663,0,1,1-6.663,6.663A6.65,6.65,0,0,1,10.329,294.316Z" fill="#fff"/>
    <path id="path1340" d="M11.833,299.65a.781.781,0,0,0-.833.715v5a.843.843,0,0,0,1.666,0v-5A.781.781,0,0,0,11.833,299.65Z" transform="translate(-1.504 -0.105)" fill="#fff"/>
    <path id="path1342" d="M12.666,297.483a.833.833,0,1,1-.833-.833A.833.833,0,0,1,12.666,297.483Z" transform="translate(-1.504 0.164)" fill="#fff"/>
  </g>
</svg>
