<svg xmlns="http://www.w3.org/2000/svg" width="171.8" height="28.72" viewBox="0 0 171.8 28.72">
  <path id="Path_19" data-name="Path 19" d="M27.6,0H20.76L9.32-17.32V0H2.48V-28.08H9.32l11.44,17.4v-17.4H27.6Zm26-11.52a17.462,17.462,0,0,1-.12,2H38a4.651,4.651,0,0,0,1.34,3.18,4.094,4.094,0,0,0,2.9,1.1A3.6,3.6,0,0,0,45.8-7.4h7.28a9.99,9.99,0,0,1-2.02,3.96A10.113,10.113,0,0,1,47.4-.68a11.756,11.756,0,0,1-4.92,1,11.972,11.972,0,0,1-5.84-1.4,9.958,9.958,0,0,1-4-4,12.349,12.349,0,0,1-1.44-6.08,12.49,12.49,0,0,1,1.42-6.08,9.829,9.829,0,0,1,3.98-4,12.056,12.056,0,0,1,5.88-1.4,11.935,11.935,0,0,1,5.76,1.36,9.765,9.765,0,0,1,3.94,3.88A11.777,11.777,0,0,1,53.6-11.52Zm-7-1.8a3.517,3.517,0,0,0-1.2-2.8,4.417,4.417,0,0,0-3-1.04,4.332,4.332,0,0,0-2.9,1,4.441,4.441,0,0,0-1.46,2.84ZM70.4,0,66.12-6.2,62.52,0h-7.4l7.36-11.4L54.92-22.32H62.6l4.28,6.16,3.6-6.16h7.4L70.4-11.08,78.08,0ZM93.16-5.8V0H89.68a8.518,8.518,0,0,1-5.8-1.82Q81.8-3.64,81.8-7.76v-8.88H79.08v-5.68H81.8v-5.44h6.84v5.44h4.48v5.68H88.64v8.96a1.874,1.874,0,0,0,.48,1.44,2.343,2.343,0,0,0,1.6.44ZM115.6-19.2a5.116,5.116,0,0,0-2.18-2.14,7.133,7.133,0,0,0-3.34-.74,6.872,6.872,0,0,0-5.32,2.18,8.273,8.273,0,0,0-2,5.82,8.374,8.374,0,0,0,2.1,6.06,7.649,7.649,0,0,0,5.78,2.18,6.991,6.991,0,0,0,4.26-1.28,7.254,7.254,0,0,0,2.54-3.68h-8.68v-5.04h14.88v6.36a13.417,13.417,0,0,1-2.58,4.76,13.613,13.613,0,0,1-4.62,3.56A14.28,14.28,0,0,1,110.12.2a14.961,14.961,0,0,1-7.42-1.82,12.964,12.964,0,0,1-5.08-5.06,14.848,14.848,0,0,1-1.82-7.4,14.961,14.961,0,0,1,1.82-7.42,12.964,12.964,0,0,1,5.06-5.08,14.848,14.848,0,0,1,7.4-1.82,14.376,14.376,0,0,1,8.5,2.44,11.515,11.515,0,0,1,4.58,6.76Zm32.88,7.68a17.461,17.461,0,0,1-.12,2H132.88a4.651,4.651,0,0,0,1.34,3.18,4.094,4.094,0,0,0,2.9,1.1,3.6,3.6,0,0,0,3.56-2.16h7.28a9.99,9.99,0,0,1-2.02,3.96,10.114,10.114,0,0,1-3.66,2.76,11.756,11.756,0,0,1-4.92,1,11.972,11.972,0,0,1-5.84-1.4,9.958,9.958,0,0,1-4-4,12.349,12.349,0,0,1-1.44-6.08,12.49,12.49,0,0,1,1.42-6.08,9.829,9.829,0,0,1,3.98-4,12.056,12.056,0,0,1,5.88-1.4,11.935,11.935,0,0,1,5.76,1.36,9.765,9.765,0,0,1,3.94,3.88A11.777,11.777,0,0,1,148.48-11.52Zm-7-1.8a3.517,3.517,0,0,0-1.2-2.8,4.417,4.417,0,0,0-3-1.04,4.332,4.332,0,0,0-2.9,1,4.441,4.441,0,0,0-1.46,2.84Zm24.2-9.24a8.1,8.1,0,0,1,6.26,2.54,9.907,9.907,0,0,1,2.34,6.98V0h-6.8V-12.12a4.9,4.9,0,0,0-1.16-3.48,4.067,4.067,0,0,0-3.12-1.24,4.067,4.067,0,0,0-3.12,1.24,4.9,4.9,0,0,0-1.16,3.48V0h-6.84V-22.32h6.84v2.96a7.216,7.216,0,0,1,2.8-2.34A8.9,8.9,0,0,1,165.68-22.56Z" transform="translate(-2.48 28.4)" fill="#fff"/>
</svg>
