<svg xmlns="http://www.w3.org/2000/svg" width="10.794" height="10.794" viewBox="0 0 10.794 10.794">
  <path id="Union_4" data-name="Union 4" d="M-8147.575,6.794A1.426,1.426,0,0,1-8149,5.371V.734a1.426,1.426,0,0,1,1.425-1.423h1.423V.5h-1.423a.231.231,0,0,0-.231.231V5.371a.229.229,0,0,0,.231.229h4.634a.23.23,0,0,0,.231-.229V3.945h1.192V5.371a1.424,1.424,0,0,1-1.423,1.423Zm3.309-3.311a1.424,1.424,0,0,1-1.423-1.423V-2.575A1.426,1.426,0,0,1-8144.266-4h4.636a1.427,1.427,0,0,1,1.423,1.425V2.059a1.426,1.426,0,0,1-1.423,1.423Zm-.231-6.058V2.059a.232.232,0,0,0,.231.231h4.636a.23.23,0,0,0,.229-.231V-2.575a.229.229,0,0,0-.229-.231h-4.636A.231.231,0,0,0-8144.5-2.575Z" transform="translate(8149 4)" fill="#262626"/>
</svg>
