<svg xmlns="http://www.w3.org/2000/svg" width="11.839" height="11.922" viewBox="0 0 11.839 11.922">
  <g id="Home" transform="translate(-4 -3.833)">
    <path id="Path_7" data-name="Path 7" d="M14.359,15.755H12.386a1.48,1.48,0,0,1-1.48-1.48V11.808a.493.493,0,0,0-.493-.493H9.426a.493.493,0,0,0-.493.493v2.467a1.48,1.48,0,0,1-1.48,1.48H5.48A1.48,1.48,0,0,1,4,14.275V10.16a2.467,2.467,0,0,1,.72-1.746L8.869,4.265a1.48,1.48,0,0,1,2.092,0l4.149,4.149a2.467,2.467,0,0,1,.73,1.746v4.114a1.48,1.48,0,0,1-1.48,1.48Z" transform="translate(0 0)" fill="#fff"/>
  </g>
</svg>
