<svg xmlns="http://www.w3.org/2000/svg" width="14.498" height="19.029" viewBox="0 0 14.498 19.029">
  <path id="Path_4" data-name="Path 4" d="M20.686,8.343H19.78V6.531a4.531,4.531,0,1,0-9.061,0V8.343H9.812A1.812,1.812,0,0,0,8,10.155v9.061a1.812,1.812,0,0,0,1.812,1.812H20.686A1.812,1.812,0,0,0,22.5,19.216V10.155A1.812,1.812,0,0,0,20.686,8.343ZM15.249,16.5a1.812,1.812,0,1,1,1.812-1.812A1.812,1.812,0,0,1,15.249,16.5Zm2.809-8.155H12.44V6.531a2.809,2.809,0,1,1,5.618,0Z" transform="translate(-8 -2)" fill="#696969"/>
</svg>
