<svg xmlns="http://www.w3.org/2000/svg" width="11.839" height="12.676" viewBox="0 0 11.839 12.676">
  <g id="icons" transform="translate(-0.792)">
    <path id="settings" d="M12.1,7.606l-.634-.37a1.087,1.087,0,0,1,0-1.849l.634-.37a1,1,0,0,0,.37-1.426l-.528-.9a1,1,0,0,0-1.426-.37l-.634.37A1.054,1.054,0,0,1,8.3,1.8V1.056A1.059,1.059,0,0,0,7.24,0H6.184A1.059,1.059,0,0,0,5.127,1.056v.687a1.054,1.054,0,0,1-1.585.9l-.634-.317a1.024,1.024,0,0,0-1.426.37l-.528.9a1.152,1.152,0,0,0,.37,1.479l.634.37a1.04,1.04,0,0,1,0,1.8l-.634.37a1,1,0,0,0-.37,1.426l.528.9a1,1,0,0,0,1.426.37l.634-.317a1.054,1.054,0,0,1,1.585.9v.739a1.059,1.059,0,0,0,1.056,1.056H7.24A1.059,1.059,0,0,0,8.3,11.62v-.687a1.054,1.054,0,0,1,1.585-.9l.634.37a1.024,1.024,0,0,0,1.426-.37l.528-.9A1.205,1.205,0,0,0,12.1,7.606Zm-5.387.845A2.113,2.113,0,1,1,8.825,6.338,2.119,2.119,0,0,1,6.712,8.451Z" transform="translate(0)" fill="#fff"/>
  </g>
</svg>
