<svg xmlns="http://www.w3.org/2000/svg" width="19.898" height="21.428" viewBox="0 0 19.898 21.428">
  <g id="_9035117_person_icon" data-name="9035117_person_icon" transform="translate(-47.994 -32)">
    <path id="Path_1" data-name="Path 1" d="M160.639,33.558a5.111,5.111,0,0,0-7.339-.01,5.063,5.063,0,0,0-1.286,3.864c.212,2.923,2.437,5.3,4.959,5.3s4.743-2.378,4.959-5.3A5.048,5.048,0,0,0,160.639,33.558Z" transform="translate(-99.03)" fill="#696969"/>
    <path id="Path_2" data-name="Path 2" d="M66.362,297.184H49.525a1.483,1.483,0,0,1-1.158-.532,1.689,1.689,0,0,1-.343-1.392,8.189,8.189,0,0,1,3.644-5.441,11.742,11.742,0,0,1,12.551,0,8.187,8.187,0,0,1,3.644,5.441,1.689,1.689,0,0,1-.343,1.392A1.483,1.483,0,0,1,66.362,297.184Z" transform="translate(0 -243.755)" fill="#696969"/>
  </g>
</svg>
